<svg width="32" height="32" viewBox="0 0 32 32" fill="none" xmlns="http://www.w3.org/2000/svg">
<rect width="32" height="32" rx="16" fill="#1D9F57"/>
<g clip-path="url(#clip0_4044_8645)">
<path d="M8.9395 20.0609C8.65818 20.3421 8.50008 20.7236 8.5 21.1214V22.7504C8.5 22.9493 8.57902 23.14 8.71967 23.2807C8.86032 23.4213 9.05109 23.5004 9.25 23.5004H11.5C11.6989 23.5004 11.8897 23.4213 12.0303 23.2807C12.171 23.14 12.25 22.9493 12.25 22.7504V22.0004C12.25 21.8015 12.329 21.6107 12.4697 21.47C12.6103 21.3294 12.8011 21.2504 13 21.2504H13.75C13.9489 21.2504 14.1397 21.1713 14.2803 21.0307C14.421 20.89 14.5 20.6993 14.5 20.5004V19.7504C14.5 19.5515 14.579 19.3607 14.7197 19.22C14.8603 19.0794 15.0511 19.0004 15.25 19.0004H15.379C15.7768 19.0003 16.1583 18.8422 16.4395 18.5609L17.05 17.9504C18.0924 18.3135 19.2271 18.3121 20.2686 17.9464C21.3101 17.5808 22.1967 16.8725 22.7833 15.9375C23.3699 15.0024 23.6218 13.896 23.4978 12.7992C23.3739 11.7023 22.8813 10.6801 22.1008 9.89954C21.3203 9.11903 20.298 8.6265 19.2012 8.50253C18.1044 8.37856 16.9979 8.63049 16.0629 9.2171C15.1279 9.8037 14.4196 10.6903 14.0539 11.7318C13.6883 12.7732 13.6869 13.908 14.05 14.9504L8.9395 20.0609Z" stroke="white" stroke-width="1.6" stroke-linecap="round" stroke-linejoin="round"/>
<path d="M19.375 13C19.5821 13 19.75 12.8321 19.75 12.625C19.75 12.4179 19.5821 12.25 19.375 12.25C19.1679 12.25 19 12.4179 19 12.625C19 12.8321 19.1679 13 19.375 13Z" fill="white" stroke="white" stroke-width="1.6" stroke-linecap="round" stroke-linejoin="round"/>
</g>
<defs>
<clipPath id="clip0_4044_8645">
<rect width="18" height="18" fill="white" transform="translate(7 7)"/>
</clipPath>
</defs>
</svg>
