<svg width="32" height="32" viewBox="0 0 32 32" fill="none" xmlns="http://www.w3.org/2000/svg">
<rect width="32" height="32" rx="16" fill="#576081" fill-opacity="0.11"/>
<path d="M17.5 17.689V19.2561C17.0308 19.0902 16.526 19 16 19C13.5147 19 11.5 21.0147 11.5 23.5H10C10 20.1863 12.6863 17.5 16 17.5C16.518 17.5 17.0206 17.5656 17.5 17.689ZM16 16.75C13.5138 16.75 11.5 14.7362 11.5 12.25C11.5 9.76375 13.5138 7.75 16 7.75C18.4862 7.75 20.5 9.76375 20.5 12.25C20.5 14.7362 18.4862 16.75 16 16.75ZM16 15.25C17.6575 15.25 19 13.9075 19 12.25C19 10.5925 17.6575 9.25 16 9.25C14.3425 9.25 13 10.5925 13 12.25C13 13.9075 14.3425 15.25 16 15.25Z" fill="#AFAFAF"/>
<path d="M20.4404 19.425C20.4795 19.3002 20.5559 19.1916 20.6585 19.1152C20.7611 19.0387 20.8845 18.9984 21.0107 19C21.1369 19.0017 21.2592 19.0453 21.3599 19.1244C21.4606 19.2035 21.5344 19.314 21.5705 19.4398L22.0068 20.334C22.0492 20.4209 22.1109 20.4961 22.1868 20.5534C22.2626 20.6107 22.3505 20.6484 22.4431 20.6635L23.4103 20.8211C23.5349 20.8216 23.6561 20.863 23.7568 20.9393C23.8574 21.0157 23.9324 21.1231 23.9709 21.2463C24.0095 21.3695 24.0097 21.5023 23.9715 21.6256C23.9334 21.749 23.8588 21.8567 23.7584 21.9334L23.0646 22.6527C22.9982 22.7215 22.9484 22.8057 22.9194 22.8985C22.8904 22.9912 22.8829 23.0897 22.8977 23.186L23.051 24.1794C23.0932 24.3039 23.0958 24.4392 23.0584 24.5654C23.0211 24.6916 22.9458 24.8019 22.8436 24.8802C22.7414 24.9584 22.6177 25.0004 22.4908 25C22.3639 24.9996 22.2405 24.9567 22.1388 24.8778L21.2715 24.4159C21.188 24.3714 21.0955 24.3482 21.0016 24.3482C20.9077 24.3482 20.8152 24.3714 20.7317 24.4159L19.8644 24.8778C19.7627 24.9561 19.6396 24.9984 19.5131 24.9985C19.3865 24.9987 19.2633 24.9567 19.1614 24.8786C19.0596 24.8006 18.9844 24.6907 18.9469 24.565C18.9095 24.4392 18.9118 24.3043 18.9534 24.18L19.1061 23.1867C19.1209 23.0904 19.1134 22.9918 19.0844 22.8991C19.0554 22.8063 19.0056 22.7221 18.9392 22.6533L18.2549 21.9432C18.1511 21.8684 18.073 21.761 18.032 21.6368C17.991 21.5125 17.9894 21.3779 18.0272 21.2525C18.065 21.1272 18.1404 21.0177 18.2422 20.9401C18.3441 20.8625 18.4672 20.8208 18.5935 20.8211L19.5602 20.6635C19.6528 20.6484 19.7406 20.6107 19.8164 20.5534C19.8923 20.4961 19.954 20.4209 19.9964 20.334L20.4404 19.425Z" stroke="#AFAFAF" stroke-width="1.2" stroke-linecap="round" stroke-linejoin="round"/>
</svg>
