<svg width="32" height="32" viewBox="0 0 32 32" fill="none" xmlns="http://www.w3.org/2000/svg">
<rect width="32" height="32" rx="16" fill="#2E7EC1"/>
<path d="M21.5072 12.0517V9.6831C21.5072 9.4737 21.424 9.27287 21.2759 9.12481C21.1279 8.97674 20.9271 8.89355 20.7177 8.89355H10.4536C10.0348 8.89355 9.63315 9.05992 9.33702 9.35606C9.04088 9.65219 8.87451 10.0538 8.87451 10.4726C8.87451 10.8914 9.04088 11.2931 9.33702 11.5892C9.63315 11.8854 10.0348 12.0517 10.4536 12.0517H22.2967C22.5061 12.0517 22.707 12.1349 22.855 12.283C23.0031 12.431 23.0863 12.6319 23.0863 12.8413V15.9994M23.0863 15.9994H20.7177C20.2989 15.9994 19.8972 16.1658 19.6011 16.4619C19.3049 16.7581 19.1386 17.1597 19.1386 17.5785C19.1386 17.9973 19.3049 18.399 19.6011 18.6951C19.8972 18.9912 20.2989 19.1576 20.7177 19.1576H23.0863C23.2957 19.1576 23.4965 19.0744 23.6446 18.9264C23.7926 18.7783 23.8758 18.5775 23.8758 18.3681V16.789C23.8758 16.5796 23.7926 16.3788 23.6446 16.2307C23.4965 16.0826 23.2957 15.9994 23.0863 15.9994Z" stroke="white" stroke-width="1.6" stroke-linecap="round" stroke-linejoin="round"/>
<path d="M8.87451 10.4736V21.5272C8.87451 21.946 9.04088 22.3477 9.33701 22.6438C9.63315 22.9399 10.0348 23.1063 10.4536 23.1063H22.2967C22.5061 23.1063 22.707 23.0231 22.855 22.8751C23.0031 22.727 23.0863 22.5262 23.0863 22.3168V19.1586" stroke="white" stroke-width="1.6" stroke-linecap="round" stroke-linejoin="round"/>
</svg>
