<svg width="135" height="132" viewBox="0 0 135 132" fill="none" xmlns="http://www.w3.org/2000/svg">
<g filter="url(#filter0_d_2074_11080)">
<path opacity="0.84" d="M90.7356 66C90.7356 68.3773 88.5979 70.3945 87.8879 72.5385C87.1516 74.7614 87.6462 77.62 86.273 79.4701C84.8866 81.3385 81.9509 81.7537 80.0455 83.115C78.159 84.4616 76.8569 87.0777 74.59 87.7997C72.4037 88.496 69.7902 87.1531 67.3678 87.1531C64.9454 87.1531 62.3319 88.496 60.1456 87.7997C57.8787 87.0777 56.5766 84.4616 54.69 83.115C52.7847 81.7555 49.849 81.3403 48.4626 79.4701C47.0894 77.62 47.5839 74.7614 46.8477 72.5385C46.1376 70.3945 44 68.3773 44 66C44 63.6227 46.1376 61.6055 46.8477 59.4615C47.5839 57.2386 47.0894 54.38 48.4626 52.5299C49.849 50.6615 52.7847 50.2464 54.69 48.885C56.5766 47.5384 57.8787 44.9223 60.1456 44.2003C62.3319 43.504 64.9454 44.8469 67.3678 44.8469C69.792 44.8469 72.4037 43.504 74.59 44.2003C76.8569 44.9223 78.159 47.5384 80.0455 48.885C81.9509 50.2445 84.8866 50.6597 86.273 52.5299C87.6462 54.38 87.1516 57.2386 87.8879 59.4615C88.5998 61.6055 90.7356 63.6227 90.7356 66Z" fill="url(#paint0_linear_2074_11080)"/>
<path opacity="0.44" d="M70.6975 85.9566C67.7955 85.3319 66.9412 85.3319 64.0392 85.9566C63.0106 86.1789 61.6018 86.5132 60.6688 86.2156C59.0164 85.6902 57.6975 83.2027 55.6872 81.7678C53.6676 80.3257 50.8387 79.8462 49.8327 78.4903C48.8416 77.1547 49.2388 74.3733 48.4594 72.0235C48.1241 71.0113 47.5714 70.0964 47.0356 69.2108C45.2483 66.2567 45.2501 65.7405 47.0356 62.7881C47.5714 61.9026 48.1241 60.9859 48.4594 59.9754C49.2369 57.6276 48.8397 54.8443 49.8327 53.5086C50.8406 52.151 53.6602 51.677 55.6872 50.2311C57.6975 48.7945 59.0145 46.3088 60.6688 45.7815C61.6074 45.4821 63.005 45.8183 64.0392 46.0424C66.943 46.6671 67.7936 46.6671 70.6975 46.0424C71.7316 45.8201 73.133 45.4858 74.0679 45.7815C75.7203 46.307 77.0392 48.7945 79.0494 50.2293C81.0859 51.6825 83.8923 52.1455 84.904 53.5068C85.8951 54.8424 85.4979 57.6257 86.2754 59.9736C86.6107 60.9859 87.1653 61.9008 87.6992 62.7863C89.4865 65.7423 89.4846 66.2567 87.6992 69.2108C86.266 71.5789 86.0018 72.3193 85.7115 75.2184C85.3761 78.562 85.1363 78.9129 81.9552 80.2706C80.9697 80.6913 79.9524 81.1248 79.0475 81.7697C77.0373 83.2045 75.7165 85.692 74.066 86.2174C73.8168 86.2964 71.7635 86.1862 70.6975 85.9566Z" fill="url(#paint1_radial_2074_11080)"/>
<path d="M67.3957 83.1001C76.8397 83.1001 84.4956 75.4442 84.4956 66.0002C84.4956 56.5562 76.8397 48.9004 67.3957 48.9004C57.9518 48.9004 50.2959 56.5562 50.2959 66.0002C50.2959 75.4442 57.9518 83.1001 67.3957 83.1001Z" fill="url(#paint2_linear_2074_11080)"/>
<path d="M67.4559 82.5329C76.5534 82.5329 83.9284 75.1579 83.9284 66.0604C83.9284 56.9629 76.5534 49.5879 67.4559 49.5879C58.3584 49.5879 50.9834 56.9629 50.9834 66.0604C50.9834 75.1579 58.3584 82.5329 67.4559 82.5329Z" fill="url(#paint3_linear_2074_11080)"/>
<path d="M69.2124 58.2324V72.5H66.8589V61.0254L63.3726 62.207V60.2637L68.9292 58.2324H69.2124Z" fill="#FFD773"/>
</g>
<defs>
<filter id="filter0_d_2074_11080" x="0" y="0" width="134.735" height="132" filterUnits="userSpaceOnUse" color-interpolation-filters="sRGB">
<feFlood flood-opacity="0" result="BackgroundImageFix"/>
<feColorMatrix in="SourceAlpha" type="matrix" values="0 0 0 0 0 0 0 0 0 0 0 0 0 0 0 0 0 0 127 0" result="hardAlpha"/>
<feOffset/>
<feGaussianBlur stdDeviation="22"/>
<feComposite in2="hardAlpha" operator="out"/>
<feColorMatrix type="matrix" values="0 0 0 0 0.696154 0 0 0 0 0.668174 0 0 0 0 0.556254 0 0 0 0.5 0"/>
<feBlend mode="normal" in2="BackgroundImageFix" result="effect1_dropShadow_2074_11080"/>
<feBlend mode="normal" in="SourceGraphic" in2="effect1_dropShadow_2074_11080" result="shape"/>
</filter>
<linearGradient id="paint0_linear_2074_11080" x1="67.3678" y1="44" x2="67.3678" y2="88" gradientUnits="userSpaceOnUse">
<stop stop-color="#FFEF9E"/>
<stop offset="1" stop-color="#FD9934"/>
</linearGradient>
<radialGradient id="paint1_radial_2074_11080" cx="0" cy="0" r="1" gradientTransform="matrix(5.91875 63.1489 -57.5402 32.6941 59.5415 40.8566)" gradientUnits="userSpaceOnUse">
<stop stop-color="#FFFB86"/>
<stop offset="0.338694" stop-color="#FFEF61"/>
<stop offset="0.916248" stop-color="#FFD24A"/>
</radialGradient>
<linearGradient id="paint2_linear_2074_11080" x1="67.3959" y1="83.1003" x2="67.3959" y2="48.9006" gradientUnits="userSpaceOnUse">
<stop stop-color="#FEE093"/>
<stop offset="1" stop-color="#FDB823"/>
</linearGradient>
<linearGradient id="paint3_linear_2074_11080" x1="67.4555" y1="49.5878" x2="67.4555" y2="82.5335" gradientUnits="userSpaceOnUse">
<stop stop-color="#343841"/>
<stop offset="1" stop-color="#080D19"/>
</linearGradient>
</defs>
</svg>
