<svg width="32" height="32" viewBox="0 0 32 32" fill="none" xmlns="http://www.w3.org/2000/svg">
<rect width="32" height="32" rx="16" fill="#1D9F57"/>
<g clip-path="url(#clip0_4017_7457)">
<path d="M9.66699 18.4136L7.41031 15.5252C7.1837 15.2351 7.23513 14.8163 7.52517 14.5897L16.9782 7.20418C17.2682 6.97757 17.6871 7.029 17.9137 7.31904L20.1703 10.2075C19.4453 10.774 19.3167 11.8211 19.8832 12.5462C20.4497 13.2713 21.4968 13.3998 22.2219 12.8333L24.4786 15.7217C24.7052 16.0118 24.6538 16.4306 24.3637 16.6572L14.9107 24.0427C14.6206 24.2693 14.2018 24.2179 13.9752 23.9279L11.7185 21.0394C12.4436 20.4729 12.5722 19.4258 12.0057 18.7007C11.4392 17.9756 10.3921 17.8471 9.66699 18.4136ZM14.1226 11.1267L8.87095 15.2297L10.0886 16.7883C11.1689 16.567 12.331 16.9522 13.056 17.8801C13.7809 18.808 13.8736 20.0288 13.3975 21.0235L14.6152 22.5821L19.8669 18.479L14.1226 11.1267ZM15.173 10.306L20.9173 17.6584L23.0179 16.0172L21.8002 14.4586C20.72 14.6799 19.5578 14.2946 18.8329 13.3668C18.1079 12.4388 18.0153 11.2181 18.4913 10.2234L17.2736 8.66482L15.173 10.306Z" fill="white"/>
</g>
<defs>
<clipPath id="clip0_4017_7457">
<rect width="15.1462" height="15.1462" fill="white" transform="translate(5 15) rotate(-38)"/>
</clipPath>
</defs>
</svg>
