<svg width="32" height="32" viewBox="0 0 32 32" fill="none" xmlns="http://www.w3.org/2000/svg">
<rect width="32" height="32" rx="16" fill="#1D9F57"/>
<path d="M17.5 17.689V19.2561C17.0308 19.0902 16.526 19 16 19C13.5147 19 11.5 21.0147 11.5 23.5H10C10 20.1863 12.6863 17.5 16 17.5C16.518 17.5 17.0206 17.5656 17.5 17.689ZM16 16.75C13.5138 16.75 11.5 14.7362 11.5 12.25C11.5 9.76375 13.5138 7.75 16 7.75C18.4862 7.75 20.5 9.76375 20.5 12.25C20.5 14.7362 18.4862 16.75 16 16.75ZM16 15.25C17.6575 15.25 19 13.9075 19 12.25C19 10.5925 17.6575 9.25 16 9.25C14.3425 9.25 13 10.5925 13 12.25C13 13.9075 14.3425 15.25 16 15.25ZM20.3447 21.9356L22.9963 19.284L24.0569 20.3447L20.3447 24.0569L17.693 21.4053L18.7537 20.3447L20.3447 21.9356Z" fill="white"/>
</svg>
