<svg width="24" height="24" viewBox="0 0 24 24" fill="none" xmlns="http://www.w3.org/2000/svg">
<g clip-path="url(#clip0_4011_6023)">
<path d="M7 18.5C7.82386 18.5 8.5 19.1761 8.5 20C8.5 20.8239 7.82386 21.5 7 21.5C6.1794 21.5 5.50977 20.8271 5.50977 20C5.50977 19.1729 6.1794 18.5 7 18.5ZM17 18.5C17.8239 18.5 18.5 19.1761 18.5 20C18.5 20.8239 17.8239 21.5 17 21.5C16.1794 21.5 15.5098 20.8271 15.5098 20C15.5098 19.1729 16.1794 18.5 17 18.5ZM3.95215 2.5L4.75781 4.21289L4.89258 4.5H20C20.2739 4.5 20.5 4.72614 20.5 5C20.5 5.09566 20.4769 5.17752 20.4463 5.23145L20.4424 5.23828L16.8623 11.7285L16.8613 11.7295C16.6076 12.1921 16.1141 12.5 15.5498 12.5H7.80469L7.66211 12.7588L6.7627 14.3887L6.73047 14.4453L6.71484 14.5088L6.68457 14.6289L6.66992 14.6885V14.75C6.66992 15.1661 7.00382 15.5 7.41992 15.5H18.5V16.5H7C6.17614 16.5 5.5 15.8239 5.5 15C5.5 14.8019 5.53838 14.6151 5.60645 14.4482L5.68457 14.2881L5.6875 14.2812L7.03809 11.8311L7.16113 11.6074L7.05176 11.376L3.45215 3.78613L3.31641 3.5H1.5V2.5H3.95215Z" stroke="white"/>
</g>
<defs>
<clipPath id="clip0_4011_6023">
<rect width="24" height="24" fill="white"/>
</clipPath>
</defs>
</svg>
