<svg xmlns="http://www.w3.org/2000/svg" style="display: none;">
    <!-- Search Icon -->
    <symbol id="icon-search" viewBox="0 0 16 16">
        <path d="M7.33333 12.6667C10.2789 12.6667 12.6667 10.2789 12.6667 7.33333C12.6667 4.38781 10.2789 2 7.33333 2C4.38781 2 2 4.38781 2 7.33333C2 10.2789 4.38781 12.6667 7.33333 12.6667Z" stroke="currentColor" stroke-width="1.33333" stroke-linecap="round" stroke-linejoin="round"/>
        <path d="M14 14L11.1 11.1" stroke="currentColor" stroke-width="1.33333" stroke-linecap="round" stroke-linejoin="round"/>
    </symbol>
    
    <!-- Cart Icon -->
    <symbol id="icon-cart" viewBox="0 0 30 30">
        <g clip-path="url(#clip-cart)">
            <path d="M11.25 19.5C10.425 19.5 9.7575 20.175 9.7575 21C9.7575 21.825 10.425 22.5 11.25 22.5C12.075 22.5 12.75 21.825 12.75 21C12.75 20.175 12.075 19.5 11.25 19.5ZM6.75 7.5V9H8.25L10.95 14.6925L9.9375 16.53C9.8175 16.74 9.75 16.9875 9.75 17.25C9.75 18.075 10.425 18.75 11.25 18.75H20.25V17.25H11.565C11.46 17.25 11.3775 17.1675 11.3775 17.0625L11.4 16.9725L12.075 15.75H17.6625C18.225 15.75 18.72 15.4425 18.975 14.9775L21.66 10.11C21.72 10.005 21.75 9.8775 21.75 9.75C21.75 9.3375 21.4125 9 21 9H9.9075L9.2025 7.5H6.75ZM18.75 19.5C17.925 19.5 17.2575 20.175 17.2575 21C17.2575 21.825 17.925 22.5 18.75 22.5C19.575 22.5 20.25 21.825 20.25 21C20.25 20.175 19.575 19.5 18.75 19.5Z" fill="currentColor"/>
        </g>
        <defs>
            <clipPath id="clip-cart">
                <rect width="18" height="18" fill="white" transform="translate(6 6)"/>
            </clipPath>
        </defs>
    </symbol>
    
    <!-- Wallet/Balance Icon -->
    <symbol id="icon-wallet" viewBox="0 0 20 20">
        <path d="M2.08289 9.99951L2.08337 6.36304C2.08337 5.40624 2.67447 4.55393 3.57325 4.21623L10.0024 1.80413C11.0064 1.42623 12.0834 2.16597 12.0834 3.23533V6.29066" fill="currentColor" fill-opacity="0.25"/>
        <path d="M2.08289 9.99951L2.08337 6.36304C2.08337 5.40624 2.67447 4.55393 3.57325 4.21623L10.0024 1.80413C11.0064 1.42623 12.0834 2.16597 12.0834 3.23533V6.29066" stroke="currentColor" stroke-width="1.5" stroke-linecap="round" stroke-linejoin="round"/>
        <path d="M15.0334 11.2056C14.6834 11.5412 14.4834 12.0243 14.5334 12.5401C14.6084 13.4243 15.4334 14.0711 16.3334 14.0711H17.9167V15.0453C17.9167 16.7401 16.5084 18.1237 14.7834 18.1237H5.21671C3.49171 18.1237 2.08337 16.7401 2.08337 15.0453V9.5354C2.08337 7.84067 3.49171 6.45703 5.21671 6.45703H14.7834C16.5084 6.45703 17.9167 7.84067 17.9167 9.5354V10.7144H16.2334C15.7667 10.7144 15.3417 10.8944 15.0334 11.2056Z" fill="currentColor" fill-opacity="0.25" stroke="currentColor" stroke-linecap="round" stroke-linejoin="round"/>
        <path d="M18.6914 11.6212V13.2961C18.6914 13.7432 18.334 14.1091 17.8791 14.1253H16.2869C15.4095 14.1253 14.6053 13.483 14.5322 12.605C14.4835 12.0928 14.6784 11.6131 15.0196 11.2798C15.3202 10.9708 15.7345 10.792 16.1894 10.792H17.8791C18.334 10.8083 18.6914 11.1741 18.6914 11.6212Z" fill="currentColor" fill-opacity="0.32" stroke="currentColor" stroke-width="1.4" stroke-linecap="round" stroke-linejoin="round"/>
        <path d="M5.83337 10H11.6667" stroke="currentColor" stroke-width="1.8" stroke-linecap="round" stroke-linejoin="round"/>
    </symbol>
    
    <!-- Coin Icon -->
    <symbol id="icon-coin" viewBox="0 0 18 18">
        <path d="M9 15.75C12.7279 15.75 15.75 12.7279 15.75 9C15.75 5.27208 12.7279 2.25 9 2.25C5.27208 2.25 2.25 5.27208 2.25 9C2.25 12.7279 5.27208 15.75 9 15.75Z" fill="#E3BA17"/>
        <path d="M9 9V12.75" stroke="#0C1012" stroke-width="1.5" stroke-linecap="round" stroke-linejoin="round"/>
        <path d="M9 5.25C7.75736 5.25 6.75 6.25736 6.75 7.5C6.75 8.74264 7.75736 9.75 9 9.75C10.2426 9.75 11.25 10.7574 11.25 12C11.25 13.2426 10.2426 14.25 9 14.25C7.75736 14.25 6.75 13.2426 6.75 12" stroke="#0C1012" stroke-width="1.5" stroke-linecap="round" stroke-linejoin="round"/>
    </symbol>
    
    <!-- Bonus Coin Icon -->
    <symbol id="icon-bonus-coin" viewBox="0 0 18 18">
        <path d="M9 15.75C12.7279 15.75 15.75 12.7279 15.75 9C15.75 5.27208 12.7279 2.25 9 2.25C5.27208 2.25 2.25 5.27208 2.25 9C2.25 12.7279 5.27208 15.75 9 15.75Z" fill="#86C3F6"/>
        <path d="M9.5625 10.875C9.58594 10.6406 9.58594 10.4531 9.53906 10.3594C9.51562 10.2656 9.42188 10.125 9.25781 9.89062L6.375 5.90625C6.30469 5.76562 6.25781 5.64844 6.25781 5.53125C6.25781 5.32031 6.32812 5.13281 6.49219 4.99219C6.63281 4.85156 6.82031 4.78125 7.03125 4.78125C7.24219 4.78125 7.42969 4.875 7.57031 5.03906L10.4062 8.97656L13.2422 5.03906C13.3828 4.875 13.5703 4.78125 13.7812 4.78125C13.9922 4.78125 14.1797 4.85156 14.3203 4.99219C14.4844 5.13281 14.5547 5.32031 14.5547 5.53125C14.5547 5.64844 14.5078 5.76562 14.4375 5.90625L11.5547 9.89062C11.3906 10.125 11.2969 10.2656 11.2734 10.3594C11.2266 10.4531 11.2266 10.6406 11.25 10.875V11.9062C11.25 12.1641 11.1562 12.3984 10.9922 12.5625C10.8281 12.7266 10.5938 12.8203 10.3359 12.8203H9.49219C9.23438 12.8203 9 12.7266 8.83594 12.5625C8.67188 12.3984 8.57812 12.1641 8.57812 11.9062V10.875H9.5625Z" fill="#0C1012"/>
    </symbol>
    
    <!-- Empty Cart Icon -->
    <symbol id="icon-empty-cart" viewBox="0 0 64 64">
        <path d="M24 8L8 16V32C8 42.4 15.2 51.8 24 56C32.8 51.8 40 42.4 40 32V16L24 8Z" fill="currentColor" fill-opacity="0.1"/>
        <path d="M40 22.6667L40 32C40 42.4 32.8 51.8 24 56C15.2 51.8 8 42.4 8 32L8 16L24 8L40 16V22.6667Z" stroke="currentColor" stroke-width="2" stroke-linecap="round" stroke-linejoin="round"/>
        <path d="M24 20V36M16 28H32" stroke="currentColor" stroke-width="2" stroke-linecap="round"/>
    </symbol>
    
    <!-- Minus Icon -->
    <symbol id="icon-minus" viewBox="0 0 14 14">
        <path d="M2.91675 7H11.0834" stroke="currentColor" stroke-width="1.6" stroke-linecap="round" stroke-linejoin="round"/>
    </symbol>
    
    <!-- Plus Icon -->
    <symbol id="icon-plus" viewBox="0 0 14 14">
        <path d="M7 2.91699V11.0837" stroke="currentColor" stroke-width="1.6" stroke-linecap="round" stroke-linejoin="round"/>
        <path d="M2.91675 7H11.0834" stroke="currentColor" stroke-width="1.6" stroke-linecap="round" stroke-linejoin="round"/>
    </symbol>
    
    <!-- Arrow Right Icon -->
    <symbol id="icon-arrow-right" viewBox="0 0 20 20">
        <path d="M7.5 15L12.5 10L7.5 5" stroke="currentColor" stroke-width="1.67" stroke-linecap="round" stroke-linejoin="round"/>
    </symbol>
</svg>
