<svg width="135" height="132" viewBox="0 0 135 132" fill="none" xmlns="http://www.w3.org/2000/svg">
<g filter="url(#filter0_d_2074_11067)">
<path opacity="0.84" d="M90.7356 66C90.7356 68.3773 88.5979 70.3945 87.8879 72.5385C87.1516 74.7614 87.6462 77.62 86.273 79.4701C84.8866 81.3385 81.9509 81.7537 80.0455 83.115C78.159 84.4616 76.8569 87.0777 74.59 87.7997C72.4037 88.496 69.7902 87.1531 67.3678 87.1531C64.9454 87.1531 62.3319 88.496 60.1456 87.7997C57.8787 87.0777 56.5766 84.4616 54.69 83.115C52.7847 81.7555 49.849 81.3403 48.4626 79.4701C47.0894 77.62 47.5839 74.7614 46.8477 72.5385C46.1376 70.3945 44 68.3773 44 66C44 63.6227 46.1376 61.6055 46.8477 59.4615C47.5839 57.2386 47.0894 54.38 48.4626 52.5299C49.849 50.6615 52.7847 50.2464 54.69 48.885C56.5766 47.5384 57.8787 44.9223 60.1456 44.2003C62.3319 43.504 64.9454 44.8469 67.3678 44.8469C69.792 44.8469 72.4037 43.504 74.59 44.2003C76.8569 44.9223 78.159 47.5384 80.0455 48.885C81.9509 50.2445 84.8866 50.6597 86.273 52.5299C87.6462 54.38 87.1516 57.2386 87.8879 59.4615C88.5998 61.6055 90.7356 63.6227 90.7356 66Z" fill="url(#paint0_linear_2074_11067)"/>
<path opacity="0.44" d="M70.6972 85.9566C67.7952 85.3319 66.9409 85.3319 64.0389 85.9566C63.0104 86.1789 61.6015 86.5132 60.6686 86.2156C59.0162 85.6902 57.6972 83.2027 55.687 81.7678C53.6674 80.3257 50.8385 79.8462 49.8324 78.4903C48.8413 77.1547 49.2385 74.3733 48.4592 72.0235C48.1238 71.0113 47.5711 70.0964 47.0353 69.2108C45.248 66.2567 45.2499 65.7405 47.0353 62.7881C47.5711 61.9026 48.1238 60.9859 48.4592 59.9754C49.2366 57.6276 48.8395 54.8443 49.8324 53.5086C50.8403 52.151 53.6599 51.677 55.687 50.2311C57.6972 48.7945 59.0143 46.3088 60.6686 45.7815C61.6072 45.4821 63.0048 45.8183 64.0389 46.0424C66.9428 46.6671 67.7934 46.6671 70.6972 46.0424C71.7314 45.8201 73.1327 45.4858 74.0676 45.7815C75.72 46.307 77.0389 48.7945 79.0492 50.2293C81.0856 51.6825 83.8921 52.1455 84.9038 53.5068C85.8948 54.8424 85.4976 57.6257 86.2751 59.9736C86.6105 60.9859 87.165 61.9008 87.699 62.7863C89.4863 65.7423 89.4844 66.2567 87.699 69.2108C86.2658 71.5789 86.0016 72.3193 85.7112 75.2184C85.3759 78.562 85.1361 78.9129 81.9549 80.2706C80.9695 80.6913 79.9522 81.1248 79.0473 81.7697C77.0371 83.2045 75.7163 85.692 74.0657 86.2174C73.8166 86.2964 71.7632 86.1862 70.6972 85.9566Z" fill="url(#paint1_radial_2074_11067)"/>
<path d="M67.396 83.1001C76.84 83.1001 84.4958 75.4442 84.4958 66.0002C84.4958 56.5562 76.84 48.9004 67.396 48.9004C57.952 48.9004 50.2961 56.5562 50.2961 66.0002C50.2961 75.4442 57.952 83.1001 67.396 83.1001Z" fill="url(#paint2_linear_2074_11067)"/>
<path d="M67.4561 82.5329C76.5536 82.5329 83.9286 75.1579 83.9286 66.0604C83.9286 56.9629 76.5536 49.5879 67.4561 49.5879C58.3586 49.5879 50.9836 56.9629 50.9836 66.0604C50.9836 75.1579 58.3586 82.5329 67.4561 82.5329Z" fill="url(#paint3_linear_2074_11067)"/>
<path d="M72.3181 70.625V72.5H62.7869V70.8887L67.4158 65.8398C67.9236 65.2669 68.324 64.7721 68.6169 64.3555C68.9099 63.9388 69.115 63.5645 69.2322 63.2324C69.3559 62.8939 69.4177 62.5651 69.4177 62.2461C69.4177 61.7969 69.3331 61.403 69.1638 61.0645C69.0011 60.7194 68.7602 60.4492 68.4412 60.2539C68.1222 60.0521 67.7348 59.9512 67.2791 59.9512C66.7517 59.9512 66.309 60.0651 65.9509 60.293C65.5929 60.5208 65.3227 60.8366 65.1404 61.2402C64.9581 61.6374 64.8669 62.0931 64.8669 62.6074H62.5134C62.5134 61.7806 62.7022 61.0254 63.0798 60.3418C63.4574 59.6517 64.0043 59.1048 64.7205 58.7012C65.4366 58.291 66.2992 58.0859 67.3083 58.0859C68.2589 58.0859 69.0662 58.2454 69.7302 58.5645C70.3943 58.8835 70.8988 59.3359 71.2439 59.9219C71.5955 60.5078 71.7712 61.2012 71.7712 62.002C71.7712 62.4447 71.6996 62.8841 71.5564 63.3203C71.4132 63.7565 71.2081 64.1927 70.9412 64.6289C70.6807 65.0586 70.3715 65.4915 70.0134 65.9277C69.6554 66.3574 69.2615 66.7936 68.8318 67.2363L65.7556 70.625H72.3181Z" fill="#ECECEC"/>
</g>
<defs>
<filter id="filter0_d_2074_11067" x="0" y="0" width="134.735" height="132" filterUnits="userSpaceOnUse" color-interpolation-filters="sRGB">
<feFlood flood-opacity="0" result="BackgroundImageFix"/>
<feColorMatrix in="SourceAlpha" type="matrix" values="0 0 0 0 0 0 0 0 0 0 0 0 0 0 0 0 0 0 127 0" result="hardAlpha"/>
<feOffset/>
<feGaussianBlur stdDeviation="22"/>
<feComposite in2="hardAlpha" operator="out"/>
<feColorMatrix type="matrix" values="0 0 0 0 0.92549 0 0 0 0 0.92549 0 0 0 0 0.92549 0 0 0 0.5 0"/>
<feBlend mode="normal" in2="BackgroundImageFix" result="effect1_dropShadow_2074_11067"/>
<feBlend mode="normal" in="SourceGraphic" in2="effect1_dropShadow_2074_11067" result="shape"/>
</filter>
<linearGradient id="paint0_linear_2074_11067" x1="67.3678" y1="44" x2="67.3678" y2="88" gradientUnits="userSpaceOnUse">
<stop stop-color="#E3E3E3"/>
<stop offset="1" stop-color="#B1B1B1"/>
</linearGradient>
<radialGradient id="paint1_radial_2074_11067" cx="0" cy="0" r="1" gradientTransform="matrix(5.91875 63.1489 -57.5402 32.6941 59.5413 40.8566)" gradientUnits="userSpaceOnUse">
<stop stop-color="#E8E8E8"/>
<stop offset="0.338694" stop-color="#CCCCCC"/>
<stop offset="0.916248" stop-color="#9A9A9A"/>
</radialGradient>
<linearGradient id="paint2_linear_2074_11067" x1="67.3962" y1="83.1003" x2="67.3962" y2="48.9006" gradientUnits="userSpaceOnUse">
<stop stop-color="#E1E1E1"/>
<stop offset="1" stop-color="#C1C1C1"/>
</linearGradient>
<linearGradient id="paint3_linear_2074_11067" x1="67.4557" y1="49.5878" x2="67.4557" y2="82.5335" gradientUnits="userSpaceOnUse">
<stop stop-color="#343841"/>
<stop offset="1" stop-color="#080D19"/>
</linearGradient>
</defs>
</svg>
