<svg width="32" height="32" viewBox="0 0 32 32" fill="none" xmlns="http://www.w3.org/2000/svg">
<rect width="32" height="32" rx="16" fill="#1D9F57"/>
<path d="M19.1111 19.8889V19.1111H16.7778V16.7778H19.1111V18.3333H20.6667V19.8889H19.8889V21.4444H18.3333V23H16.7778V20.6667H18.3333V19.8889H19.1111ZM23 23H19.8889V21.4444H21.4444V19.8889H23V23ZM9 9H15.2222V15.2222H9V9ZM10.5556 10.5556V13.6667H13.6667V10.5556H10.5556ZM16.7778 9H23V15.2222H16.7778V9ZM18.3333 10.5556V13.6667H21.4444V10.5556H18.3333ZM9 16.7778H15.2222V23H9V16.7778ZM10.5556 18.3333V21.4444H13.6667V18.3333H10.5556ZM20.6667 16.7778H23V18.3333H20.6667V16.7778ZM11.3333 11.3333H12.8889V12.8889H11.3333V11.3333ZM11.3333 19.1111H12.8889V20.6667H11.3333V19.1111ZM19.1111 11.3333H20.6667V12.8889H19.1111V11.3333Z" fill="white"/>
</svg>
